<svg width="15" height="13" viewBox="0 0 15 13" fill="none" xmlns="http://www.w3.org/2000/svg">
<path fill-rule="evenodd" clip-rule="evenodd" d="M7.58123 9.56738C6.41415 9.56738 5.46805 8.59256 5.46805 7.39006C5.46805 6.18756 6.41415 5.21274 7.58123 5.21274C8.74831 5.21274 9.69441 6.18756 9.69441 7.39006C9.69441 8.59256 8.74831 9.56738 7.58123 9.56738ZM12.8642 1.94676C13.5906 1.94676 14.1849 2.55913 14.1849 3.30759V11.4725C14.1849 12.221 13.5906 12.8334 12.8642 12.8334H2.29828C1.57187 12.8334 0.977539 12.221 0.977539 11.4725V3.30759C0.977539 2.55913 1.57187 1.94676 2.29828 1.94676H4.39165L5.2039 1.02821C5.45484 0.749236 5.81144 0.585938 6.18125 0.585938H8.98121C9.35102 0.585938 9.70762 0.749236 9.95196 1.02821L10.7708 1.94676H12.8642ZM7.58123 10.7921C9.40385 10.7921 10.8831 9.268 10.8831 7.39006C10.8831 5.51212 9.40385 3.988 7.58123 3.988C5.75861 3.988 4.27939 5.51212 4.27939 7.39006C4.27939 9.268 5.75861 10.7921 7.58123 10.7921Z" fill="#77939C"/>
</svg>
