<svg width="25" height="20" viewBox="0 0 25 20" fill="none" xmlns="http://www.w3.org/2000/svg">
<g clip-path="url(#clip0_6709_50661)">
<path d="M17.8125 6.25C18.6754 6.25 19.375 5.55039 19.375 4.6875C19.375 3.82461 18.6758 3.125 17.8125 3.125C16.9492 3.125 16.25 3.82461 16.25 4.6875C16.25 5.55039 16.9492 6.25 17.8125 6.25ZM22.5 0H13.125C11.7441 0 10.625 1.11914 10.625 2.5V17.5C10.625 18.8809 11.7441 20 13.125 20H22.5C23.8809 20 25 18.8809 25 17.5V2.5C25 1.11914 23.8789 0 22.5 0ZM23.125 17.5C23.125 17.8446 22.8446 18.125 22.5 18.125H13.125C12.7804 18.125 12.5 17.8446 12.5 17.5V2.5C12.5 2.15539 12.7804 1.875 13.125 1.875H22.5C22.8446 1.875 23.125 2.15539 23.125 2.5V17.5ZM17.8125 8.75C15.5703 8.75 13.75 10.5703 13.75 12.8125C13.75 15.0547 15.5688 16.875 17.8125 16.875C20.0562 16.875 21.875 15.0562 21.875 12.8125C21.875 10.5688 20.0547 8.75 17.8125 8.75ZM17.8125 15C16.6063 15 15.625 14.0188 15.625 12.8125C15.625 11.6062 16.6063 10.625 17.8125 10.625C19.0187 10.625 20 11.6055 20 12.8125C20 14.0195 19.0195 15 17.8125 15ZM7.1875 3.125C6.32422 3.125 5.625 3.82461 5.625 4.6875C5.625 5.55039 6.32422 6.25 7.1875 6.25C8.05078 6.25 8.75 5.55078 8.75 4.6875C8.75 3.82422 8.05078 3.125 7.1875 3.125ZM7.1875 10.625C7.80078 10.625 8.35156 10.8789 8.75 11.2852V9.07422C8.26953 8.87109 7.74219 8.75 7.1875 8.75C4.94531 8.75 3.125 10.5703 3.125 12.8125C3.125 15.0547 4.94375 16.875 7.1875 16.875C7.74375 16.875 8.26836 16.7533 8.75 16.549V14.3388C8.35156 14.7461 7.80078 15 7.1875 15C5.98047 15 5 14.0195 5 12.8125C5 11.6055 5.98047 10.625 7.1875 10.625ZM10.3164 0H2.5C1.11914 0 0 1.11914 0 2.5V17.5C0 18.8809 1.11914 20 2.5 20H10.3164C9.85 19.4828 9.52539 18.841 9.4043 18.125H2.5C2.15539 18.125 1.875 17.8446 1.875 17.5V2.5C1.875 2.15539 2.15539 1.875 2.5 1.875H9.4375C9.55859 1.15898 9.88281 0.517187 10.3164 0Z" fill="currentColor"/>
</g>
<defs>
<clipPath id="clip0_6709_50661">
<rect width="25" height="20" fill="currentColor"/>
</clipPath>
</defs>
</svg>
