<svg width="24" height="24" viewBox="0 0 24 24" fill="none" xmlns="http://www.w3.org/2000/svg">
<g clip-path="url(#clip0_6709_50653)">
<path d="M0 1.125C0 0.503906 0.503906 0 1.125 0H6.375C6.99844 0 7.5 0.503906 7.5 1.125C7.5 1.74609 6.99844 2.25 6.375 2.25H2.25V6.375C2.25 6.99844 1.74609 7.5 1.125 7.5C0.503906 7.5 0 6.99844 0 6.375V1.125ZM9.375 12C9.375 10.5516 10.5516 9.375 12 9.375C13.4484 9.375 14.625 10.5516 14.625 12C14.625 13.4484 13.4484 14.625 12 14.625C10.5516 14.625 9.375 13.4484 9.375 12ZM14.1281 4.5C14.8781 4.5 15.5578 4.94531 15.8531 5.63437L16.0078 6H16.5C18.1547 6 19.5 7.34531 19.5 9V15C19.5 16.6547 18.1547 18 16.5 18H7.5C5.84531 18 4.5 16.6547 4.5 15V9C4.5 7.34531 5.84531 6 7.5 6H7.99219L8.14688 5.63437C8.44219 4.94531 9.11719 4.5 9.87188 4.5H14.1281ZM9.47344 8.25H7.5C7.0875 8.25 6.75 8.5875 6.75 9V15C6.75 15.4125 7.0875 15.75 7.5 15.75H16.5C16.9125 15.75 17.25 15.4125 17.25 15V9C17.25 8.5875 16.9125 8.25 16.5 8.25H14.5266L13.8844 6.75H10.1156L9.47344 8.25ZM22.875 0C23.4984 0 24 0.503906 24 1.125V6.375C24 6.99844 23.4984 7.5 22.875 7.5C22.2516 7.5 21.75 6.99844 21.75 6.375V2.25H17.625C17.0016 2.25 16.5 1.74609 16.5 1.125C16.5 0.503906 17.0016 0 17.625 0H22.875ZM0 17.625C0 17.0016 0.503906 16.5 1.125 16.5C1.74609 16.5 2.25 17.0016 2.25 17.625V21.75H6.375C6.99844 21.75 7.5 22.2516 7.5 22.875C7.5 23.4984 6.99844 24 6.375 24H1.125C0.503906 24 0 23.4984 0 22.875V17.625ZM17.625 24C17.0016 24 16.5 23.4984 16.5 22.875C16.5 22.2516 17.0016 21.75 17.625 21.75H21.75V17.625C21.75 17.0016 22.2516 16.5 22.875 16.5C23.4984 16.5 24 17.0016 24 17.625V22.875C24 23.4984 23.4984 24 22.875 24H17.625Z" fill="currentColor"/>
</g>
<defs>
<clipPath id="clip0_6709_50653">
<rect width="24" height="24" fill="currentColor"/>
</clipPath>
</defs>
</svg>
