<svg width="24" height="24" viewBox="0 0 24 24" fill="none" xmlns="http://www.w3.org/2000/svg">
<path fill-rule="evenodd" clip-rule="evenodd" d="M11.4996 8.00014C11.3417 8.00014 11.1875 8.04799 11.0573 8.13739C10.9272 8.22679 10.8271 8.35353 10.7704 8.50091L9.44533 11.9458L6.00042 13.271C5.85303 13.3276 5.72629 13.4277 5.63689 13.5578C5.5475 13.688 5.49964 13.8422 5.49964 14.0001C5.49964 14.158 5.5475 14.3122 5.63689 14.4424C5.72629 14.5726 5.85303 14.6726 6.00042 14.7293L9.44533 16.0544L10.7704 19.4993C10.8271 19.6467 10.9272 19.7735 11.0573 19.8628C11.1875 19.9522 11.3417 20.0001 11.4996 20.0001C11.6575 20.0001 11.8117 19.9522 11.9419 19.8628C12.0721 19.7735 12.1721 19.6467 12.2288 19.4993L13.5539 16.0544L16.9988 14.7293C17.1462 14.6726 17.2729 14.5726 17.3623 14.4424C17.4517 14.3122 17.4996 14.158 17.4996 14.0001C17.4996 13.8422 17.4517 13.688 17.3623 13.5578C17.2729 13.4277 17.1462 13.3276 16.9988 13.271L13.5539 11.9458L12.2288 8.50091C12.1721 8.35353 12.0721 8.22679 11.9419 8.13739C11.8117 8.04799 11.6575 8.00014 11.4996 8.00014ZM10.3438 12.3955L11.4996 9.3907L12.6554 12.3956C12.6947 12.4976 12.7549 12.5902 12.8322 12.6675C12.9095 12.7448 13.0022 12.8051 13.1042 12.8443L16.109 14.0001L13.1042 15.156C13.0021 15.1952 12.9095 15.2554 12.8322 15.3327C12.7549 15.41 12.6947 15.5027 12.6554 15.6047L11.4996 18.6095L10.3438 15.6047C10.3045 15.5027 10.2443 15.41 10.167 15.3327C10.0897 15.2554 9.99703 15.1952 9.89501 15.1559L6.8902 14.0001L9.89505 12.8443C9.99707 12.805 10.0897 12.7448 10.167 12.6675C10.2443 12.5902 10.3046 12.4975 10.3438 12.3955Z" fill="currentColor"/>
<path fill-rule="evenodd" clip-rule="evenodd" d="M8.21628 3.32061C8.14201 3.12751 7.9565 3.0001 7.74961 3.0001C7.54272 3.0001 7.3572 3.12751 7.28294 3.32061L6.73771 4.7382L5.32012 5.28343C5.12702 5.3577 4.99961 5.54322 4.99961 5.7501C4.99961 5.95699 5.12702 6.14251 5.32012 6.21678L6.73771 6.76201L7.28294 8.1796C7.3572 8.37269 7.54272 8.50011 7.74961 8.50011C7.9565 8.50011 8.14201 8.37269 8.21628 8.1796L8.76151 6.76201L10.1791 6.21678C10.3722 6.14251 10.4996 5.95699 10.4996 5.7501C10.4996 5.54322 10.3722 5.3577 10.1791 5.28343L8.76151 4.7382L8.21628 3.32061ZM7.74961 4.89294L7.59128 5.30459C7.5405 5.43664 7.43615 5.54099 7.3041 5.59178L6.89245 5.7501L7.3041 5.90843C7.43615 5.95922 7.5405 6.06357 7.59128 6.19562L7.74961 6.60727L7.90794 6.19562C7.95872 6.06357 8.06307 5.95922 8.19512 5.90843L8.60677 5.7501L8.19512 5.59178C8.06307 5.54099 7.95872 5.43664 7.90794 5.30459L7.74961 4.89294Z" fill="currentColor"/>
<path fill-rule="evenodd" clip-rule="evenodd" d="M18.6868 4.92058C18.6125 4.7275 18.427 4.6001 18.2201 4.6001C18.0132 4.6001 17.8277 4.7275 17.7534 4.92058L16.9998 6.87978L15.0406 7.63344C14.8475 7.70772 14.7201 7.89323 14.7201 8.10011C14.7201 8.30698 14.8475 8.4925 15.0406 8.56677L16.9998 9.32044L17.7534 11.2796C17.8277 11.4727 18.0132 11.6001 18.2201 11.6001C18.427 11.6001 18.6125 11.4727 18.6868 11.2796L19.4404 9.32044L21.3996 8.56677C21.5927 8.4925 21.7201 8.30698 21.7201 8.10011C21.7201 7.89323 21.5927 7.70772 21.3996 7.63344L19.4404 6.87978L18.6868 4.92058ZM18.2201 6.49273L17.8533 7.44619C17.8025 7.57821 17.6982 7.68254 17.5662 7.73333L16.6127 8.10011L17.5662 8.46688C17.6982 8.51767 17.8025 8.62201 17.8533 8.75403L18.2201 9.70748L18.5869 8.75403C18.6377 8.62201 18.742 8.51767 18.874 8.46688L19.8275 8.10011L18.874 7.73333C18.742 7.68254 18.6377 7.57821 18.5869 7.44619L18.2201 6.49273Z" fill="currentColor"/>
<path d="M7.59128 5.30459L7.74961 4.89294L7.90794 5.30459C7.95872 5.43664 8.06307 5.54099 8.19512 5.59178L8.60677 5.7501L8.19512 5.90843C8.06307 5.95922 7.95872 6.06357 7.90794 6.19562L7.74961 6.60727L7.59128 6.19562C7.5405 6.06357 7.43615 5.95922 7.3041 5.90843L6.89245 5.7501L7.3041 5.59178C7.43615 5.54099 7.5405 5.43664 7.59128 5.30459Z" fill="currentColor"/>
<path d="M17.8533 7.44619L18.2201 6.49273L18.5869 7.44619C18.6377 7.57821 18.742 7.68254 18.874 7.73333L19.8275 8.10011L18.874 8.46688C18.742 8.51767 18.6377 8.62201 18.5869 8.75403L18.2201 9.70748L17.8533 8.75403C17.8025 8.62201 17.6982 8.51767 17.5662 8.46688L16.6127 8.10011L17.5662 7.73333C17.6982 7.68254 17.8025 7.57821 17.8533 7.44619Z" fill="currentColor"/>
<path d="M11.4996 9.3907L11.2853 9.94779L11.4996 10.5049L11.7139 9.94779L11.4996 9.3907Z" fill="currentColor"/>
<path d="M11.4996 10.5049L11.2853 9.94779L10.8772 11.0088L11.4996 10.5049Z" fill="currentColor"/>
<path d="M10.7171 12.5391L11.4996 10.5049L10.8772 11.0088L7.44729 13.7858L8.00437 14.0001L10.0386 13.2176C10.1929 13.1583 10.333 13.0673 10.4499 12.9504C10.5668 12.8335 10.6578 12.6933 10.7171 12.5391Z" fill="currentColor"/>
<path d="M8.00437 14.0001L7.44729 14.2144L10.0036 14.8736L10.0386 14.7826L8.00437 14.0001Z" fill="currentColor"/>
<path d="M11.4996 17.4954L11.2853 18.0524L11.4996 18.6095L11.7139 18.0524L11.4996 17.4954Z" fill="currentColor"/>
<path d="M10.3541 14.964C10.2591 14.8877 10.1527 14.8265 10.0386 14.7826L10.0036 14.8736L10.3541 14.964Z" fill="currentColor"/>
<path fill-rule="evenodd" clip-rule="evenodd" d="M12.2288 8.50091C12.1721 8.35353 12.0721 8.22679 11.9419 8.13739C11.8117 8.04799 11.6575 8.00014 11.4996 8.00014C11.3417 8.00014 11.1875 8.04799 11.0573 8.13739C10.9272 8.22679 10.8271 8.35353 10.7704 8.50091L9.44533 11.9458L6.00042 13.271C5.85303 13.3276 5.72629 13.4277 5.63689 13.5578C5.5475 13.688 5.49964 13.8422 5.49964 14.0001C5.49964 14.158 5.5475 14.3122 5.63689 14.4424C5.72629 14.5726 5.85303 14.6726 6.00042 14.7293L9.44533 16.0544L10.7704 19.4993C10.8271 19.6467 10.9272 19.7735 11.0573 19.8628C11.1875 19.9522 11.3417 20.0001 11.4996 20.0001C11.6575 20.0001 11.8117 19.9522 11.9419 19.8628C12.0721 19.7735 12.1721 19.6467 12.2288 19.4993L13.5539 16.0544L16.9988 14.7293C17.1462 14.6726 17.2729 14.5726 17.3623 14.4424C17.4517 14.3122 17.4996 14.158 17.4996 14.0001C17.4996 13.8422 17.4517 13.688 17.3623 13.5578C17.2729 13.4277 17.1462 13.3276 16.9988 13.271L13.5539 11.9458L12.2288 8.50091ZM11.4996 10.5049L11.7139 9.94779L11.4996 9.3907L11.2853 9.94779L10.8772 11.0088L7.44729 13.7858L8.00437 14.0001L7.44729 14.2144L10.0036 14.8736L10.3541 14.964C10.3875 14.9908 10.4195 15.0194 10.4499 15.0499C10.5667 15.1667 10.6578 15.3068 10.7171 15.4611L11.4996 17.4954L11.2853 18.0524L11.4996 18.6095L11.7139 18.0524L11.4996 17.4954L12.2821 15.4611C12.455 15.1043 12.6043 14.9562 12.9606 14.7826L14.9948 14.0001L15.5519 14.2144L16.109 14.0001L15.5519 13.7858L14.9948 14.0001L12.9606 13.2176C12.8064 13.1583 12.6662 13.0673 12.5493 12.9504C12.4325 12.8335 12.3414 12.6934 12.2821 12.5392L11.4996 10.5049Z" fill="currentColor"/>
<path d="M15.5519 14.2144L16.109 14.0001L15.5519 13.7858L14.9948 14.0001L15.5519 14.2144Z" fill="currentColor"/>
<path fill-rule="evenodd" clip-rule="evenodd" d="M9.13582 11.6363L5.85681 12.8976C5.63397 12.9833 5.44233 13.1346 5.30716 13.3314C5.172 13.5282 5.09964 13.7614 5.09964 14.0001C5.09964 14.2389 5.172 14.472 5.30716 14.6689C5.44233 14.8657 5.63397 15.0169 5.85681 15.1026L9.13582 16.3639L10.3971 19.6429C10.4828 19.8658 10.6341 20.0574 10.8309 20.1926C11.0277 20.3277 11.2608 20.4001 11.4996 20.4001C11.7384 20.4001 11.9715 20.3277 12.1683 20.1926C12.3652 20.0574 12.5164 19.8658 12.6021 19.6429L13.8634 16.3639L17.1424 15.1026C17.3653 15.0169 17.5569 14.8657 17.6921 14.6689C17.8272 14.472 17.8996 14.2389 17.8996 14.0001C17.8996 13.7614 17.8272 13.5282 17.6921 13.3314C17.5569 13.1346 17.3653 12.9833 17.1424 12.8976L13.8634 11.6363L12.6021 8.35731C12.5164 8.13447 12.3652 7.94283 12.1683 7.80766C11.9715 7.67249 11.7384 7.60014 11.4996 7.60014C11.2608 7.60014 11.0277 7.6725 10.8309 7.80766C10.6341 7.94283 10.4828 8.13447 10.3971 8.35731L9.13582 11.6363ZM12.2288 8.50091C12.1721 8.35353 12.0721 8.22679 11.9419 8.13739C11.8117 8.04799 11.6575 8.00014 11.4996 8.00014C11.3417 8.00014 11.1875 8.04799 11.0573 8.13739C10.9272 8.22679 10.8271 8.35353 10.7704 8.50091L9.44533 11.9458L6.00042 13.271C5.85303 13.3276 5.72629 13.4277 5.63689 13.5578C5.5475 13.688 5.49964 13.8422 5.49964 14.0001C5.49964 14.158 5.5475 14.3122 5.63689 14.4424C5.72629 14.5726 5.85303 14.6726 6.00042 14.7293L9.44533 16.0544L10.7704 19.4993C10.8271 19.6467 10.9272 19.7735 11.0573 19.8628C11.1875 19.9522 11.3417 20.0001 11.4996 20.0001C11.6575 20.0001 11.8117 19.9522 11.9419 19.8628C12.0721 19.7735 12.1721 19.6467 12.2288 19.4993L13.5539 16.0544L16.9988 14.7293C17.1462 14.6726 17.2729 14.5726 17.3623 14.4424C17.4517 14.3122 17.4996 14.158 17.4996 14.0001C17.4996 13.8422 17.4517 13.688 17.3623 13.5578C17.2729 13.4277 17.1462 13.3276 16.9988 13.271L13.5539 11.9458L12.2288 8.50091Z" fill="currentColor"/>
<path fill-rule="evenodd" clip-rule="evenodd" d="M19.0601 4.77697C18.9264 4.42942 18.5925 4.2001 18.2201 4.2001C17.8477 4.2001 17.5138 4.42942 17.3801 4.77697L16.6903 6.57027L14.897 7.26011C14.5494 7.39381 14.3201 7.72773 14.3201 8.10011C14.3201 8.47248 14.5494 8.80641 14.897 8.9401L16.6903 9.62995L17.3801 11.4232C17.5138 11.7708 17.8477 12.0001 18.2201 12.0001C18.5925 12.0001 18.9264 11.7708 19.0601 11.4232L19.7499 9.62995L21.5432 8.9401C21.8908 8.80641 22.1201 8.47248 22.1201 8.10011C22.1201 7.72773 21.8908 7.39381 21.5432 7.26011L19.7499 6.57027L19.0601 4.77697ZM16.9998 6.87978L17.7534 4.92058C17.8277 4.7275 18.0132 4.6001 18.2201 4.6001C18.427 4.6001 18.6125 4.7275 18.6868 4.92058L19.4404 6.87978L21.3996 7.63344C21.5927 7.70772 21.7201 7.89323 21.7201 8.10011C21.7201 8.30698 21.5927 8.4925 21.3996 8.56677L19.4404 9.32044L18.6868 11.2796C18.6125 11.4727 18.427 11.6001 18.2201 11.6001C18.0132 11.6001 17.8277 11.4727 17.7534 11.2796L16.9998 9.32044L15.0406 8.56677C14.8475 8.4925 14.7201 8.30698 14.7201 8.10011C14.7201 7.89323 14.8475 7.70772 15.0406 7.63344L16.9998 6.87978Z" fill="currentColor"/>
<path d="M5.32012 6.21678L5.17653 6.59012L6.42819 7.07153L6.9096 8.32319C7.04328 8.67076 7.37721 8.90011 7.74961 8.90011C8.122 8.90011 8.45594 8.67076 8.58962 8.32319L9.07103 7.07153L10.3227 6.59012C10.6703 6.45643 10.8996 6.1225 10.8996 5.7501C10.8996 5.37771 10.6703 5.04377 10.3227 4.91009L9.07103 4.42868L8.58962 3.17702C8.45594 2.82944 8.122 2.6001 7.74961 2.6001C7.37721 2.6001 7.04328 2.82944 6.9096 3.17702L6.42819 4.42868L5.17653 4.91009C4.82895 5.04377 4.59961 5.37771 4.59961 5.7501C4.59961 6.1225 4.82895 6.45643 5.17653 6.59012L5.32012 6.21678C5.12702 6.14251 4.99961 5.95699 4.99961 5.7501C4.99961 5.54322 5.12702 5.3577 5.32012 5.28343L6.73771 4.7382L7.28294 3.32061C7.3572 3.12751 7.54272 3.0001 7.74961 3.0001C7.9565 3.0001 8.14201 3.12751 8.21628 3.32061L8.76151 4.7382L10.1791 5.28343C10.3722 5.3577 10.4996 5.54322 10.4996 5.7501C10.4996 5.95699 10.3722 6.14251 10.1791 6.21678L8.76151 6.76201L8.21628 8.1796C8.14201 8.37269 7.9565 8.50011 7.74961 8.50011C7.54272 8.50011 7.3572 8.37269 7.28294 8.1796L6.73771 6.76201L5.32012 6.21678Z" fill="currentColor"/>
</svg>
