<svg width="24" height="20" viewBox="0 0 24 20" fill="none" xmlns="http://www.w3.org/2000/svg">
<g clip-path="url(#clip0_6709_50648)">
<path d="M22.8938 14.3987C22.9922 13.8737 22.9922 13.3299 22.8938 12.8049L23.8594 12.2424C23.9719 12.1815 24.0234 12.0502 23.9859 11.9237C23.7328 11.1174 23.3016 10.3813 22.7391 9.7719C22.6547 9.67815 22.5141 9.65472 22.4016 9.72034L21.4359 10.2783C21.0279 9.93147 20.5596 9.65959 20.0529 9.48147V8.36115C20.0529 8.23459 19.9592 8.12209 19.8373 8.09865C19.0029 7.91115 18.1498 7.91584 17.3529 8.09865C17.2311 8.12209 17.142 8.23459 17.142 8.36115V9.48165C16.6358 9.65978 16.167 9.93165 15.759 10.2785L14.79 9.71865C14.6822 9.65303 14.5416 9.67647 14.4525 9.77022C13.89 10.3796 13.4588 11.1157 13.2101 11.922C13.1726 12.0485 13.2242 12.1798 13.332 12.2407L14.2976 12.8032C14.2039 13.3282 14.2039 13.872 14.2976 14.397L13.332 14.9595C13.2195 15.0204 13.1726 15.1517 13.2101 15.2782C13.4586 16.0845 13.8896 16.8157 14.4525 17.43C14.5416 17.5237 14.6775 17.5472 14.79 17.4815L15.7605 16.9235C16.1685 17.2704 16.6369 17.5423 17.1435 17.7204V18.8409C17.1435 18.9675 17.2326 19.08 17.3544 19.1034C18.1937 19.2909 19.0419 19.2862 19.8388 19.1034C19.9607 19.08 20.0544 18.9675 20.0544 18.8409V17.7204C20.5607 17.5423 21.0294 17.2704 21.4374 16.9235L22.4031 17.4815C22.5109 17.5472 22.6562 17.5237 22.7406 17.43C23.3031 16.8206 23.7343 16.0845 23.9874 15.2782C24.0249 15.1517 23.9734 15.0204 23.8609 14.9595L22.8938 14.3987ZM18.6 15.4187C17.5969 15.4187 16.7813 14.603 16.7813 13.5999C16.7813 12.5968 17.5969 11.7812 18.6 11.7812C19.6031 11.7812 20.4188 12.5987 20.4188 13.5999C20.4188 14.6012 19.605 15.4187 18.6 15.4187ZM15.9413 18.8424C15.9413 19.073 16.0113 19.2838 16.1075 19.4803C15.9525 19.5512 15.7838 19.5999 15.6 19.5999H1.2C0.537375 19.5999 0 19.0637 0 18.3999C0 14.7549 2.955 11.7999 6.6 11.7999H10.1663C10.7918 11.7999 11.3955 11.8926 11.9689 12.0553C11.9848 12.5616 12.2522 13.0281 12.7069 13.2853L12.9939 13.4526C12.9914 13.5508 12.9914 13.6491 12.9939 13.7473L12.6933 13.9224C12.5761 13.9857 12.4809 14.0747 12.3891 14.1664C11.7563 13.8137 11.0063 13.5999 10.2 13.5999H6.6C4.15613 13.5999 2.13375 15.4355 1.8375 17.7999H13.2075C13.3238 17.9498 13.4393 18.0999 13.5677 18.2402C13.8617 18.5499 14.252 18.7183 14.654 18.7183C14.9134 18.7183 15.1697 18.6489 15.3947 18.5176L15.6878 18.3491C15.7717 18.4005 15.8568 18.4496 15.9432 18.4965V18.8424H15.9413ZM8.4 9.9999C11.0513 9.9999 13.2 7.85078 13.2 5.1999C13.2 2.54903 11.0513 0.399902 8.4 0.399902C5.74875 0.399902 3.6 2.54903 3.6 5.1999C3.6 7.85115 5.74875 9.9999 8.4 9.9999ZM8.4 2.1999C10.0538 2.1999 11.4 3.54578 11.4 5.1999C11.4 6.85403 10.0541 8.1999 8.39963 8.1999C6.74513 8.1999 5.4 6.85365 5.4 5.1999C5.4 3.54578 6.74625 2.1999 8.4 2.1999Z" fill="currentColor"/>
</g>
<defs>
<clipPath id="clip0_6709_50648">
<rect width="24" height="19.2" fill="currentColor" transform="translate(0 0.399902)"/>
</clipPath>
</defs>
</svg>
